<mxfile host="65bd71144e">
    <diagram id="imfi-5iLqrDbbkuD3J4O" name="Página-1">
        <mxGraphModel dx="1010" dy="327" grid="1" gridSize="10" guides="1" tooltips="1" connect="1" arrows="1" fold="1" page="0" pageScale="1" pageWidth="827" pageHeight="1169" math="0" shadow="0">
            <root>
                <mxCell id="0"/>
                <mxCell id="1" parent="0"/>
                <mxCell id="3" value="Registrarse" style="ellipse;whiteSpace=wrap;html=1;" parent="1" vertex="1">
                    <mxGeometry x="240" y="640" width="160" height="40" as="geometry"/>
                </mxCell>
                <mxCell id="4" value="Iniciar Sesión" style="ellipse;whiteSpace=wrap;html=1;" parent="1" vertex="1">
                    <mxGeometry x="240" y="680" width="160" height="40" as="geometry"/>
                </mxCell>
                <mxCell id="5" value="Crear Nivel" style="ellipse;whiteSpace=wrap;html=1;" parent="1" vertex="1">
                    <mxGeometry x="520" y="560" width="160" height="40" as="geometry"/>
                </mxCell>
                <mxCell id="6" value="Editar Nivel" style="ellipse;whiteSpace=wrap;html=1;" parent="1" vertex="1">
                    <mxGeometry x="520" y="640" width="160" height="40" as="geometry"/>
                </mxCell>
                <mxCell id="7" value="Borrar Nivel" style="ellipse;whiteSpace=wrap;html=1;" parent="1" vertex="1">
                    <mxGeometry x="520" y="800" width="160" height="40" as="geometry"/>
                </mxCell>
                <mxCell id="8" value="Jugar Nivel" style="ellipse;whiteSpace=wrap;html=1;" parent="1" vertex="1">
                    <mxGeometry x="520" y="720" width="160" height="40" as="geometry"/>
                </mxCell>
                <mxCell id="10" value="Usuario" style="shape=umlActor;verticalLabelPosition=bottom;verticalAlign=top;html=1;outlineConnect=0;" parent="1" vertex="1">
                    <mxGeometry x="160" y="640" width="40" height="80" as="geometry"/>
                </mxCell>
                <mxCell id="11" value="" style="endArrow=none;html=1;entryX=0;entryY=0.5;entryDx=0;entryDy=0;exitX=0.5;exitY=0.5;exitDx=0;exitDy=0;exitPerimeter=0;" parent="1" source="10" target="3" edge="1">
                    <mxGeometry width="50" height="50" relative="1" as="geometry">
                        <mxPoint x="240" y="340" as="sourcePoint"/>
                        <mxPoint x="340" y="280" as="targetPoint"/>
                    </mxGeometry>
                </mxCell>
                <mxCell id="12" value="" style="endArrow=none;html=1;exitX=0.5;exitY=0.5;exitDx=0;exitDy=0;exitPerimeter=0;entryX=0;entryY=0.5;entryDx=0;entryDy=0;" parent="1" source="10" target="4" edge="1">
                    <mxGeometry width="50" height="50" relative="1" as="geometry">
                        <mxPoint x="360" y="360" as="sourcePoint"/>
                        <mxPoint x="410" y="310" as="targetPoint"/>
                    </mxGeometry>
                </mxCell>
                <mxCell id="19" value="&amp;lt;&amp;lt;extend&amp;gt;&amp;gt;" style="html=1;verticalAlign=bottom;endArrow=open;dashed=1;endSize=8;entryX=0;entryY=0.5;entryDx=0;entryDy=0;exitX=1;exitY=0.5;exitDx=0;exitDy=0;" edge="1" parent="1" source="4" target="5">
                    <mxGeometry relative="1" as="geometry">
                        <mxPoint x="460" y="620" as="sourcePoint"/>
                        <mxPoint x="380" y="620" as="targetPoint"/>
                    </mxGeometry>
                </mxCell>
                <mxCell id="20" value="&amp;lt;&amp;lt;extend&amp;gt;&amp;gt;" style="html=1;verticalAlign=bottom;endArrow=open;dashed=1;endSize=8;entryX=0;entryY=0.5;entryDx=0;entryDy=0;exitX=1;exitY=0.5;exitDx=0;exitDy=0;" edge="1" parent="1" source="4" target="6">
                    <mxGeometry relative="1" as="geometry">
                        <mxPoint x="410" y="709.9999999999999" as="sourcePoint"/>
                        <mxPoint x="530" y="629.9999999999999" as="targetPoint"/>
                    </mxGeometry>
                </mxCell>
                <mxCell id="21" value="&amp;lt;&amp;lt;extend&amp;gt;&amp;gt;" style="html=1;verticalAlign=bottom;endArrow=open;dashed=1;endSize=8;entryX=0;entryY=0.5;entryDx=0;entryDy=0;exitX=1;exitY=0.5;exitDx=0;exitDy=0;" edge="1" parent="1" source="4" target="8">
                    <mxGeometry relative="1" as="geometry">
                        <mxPoint x="420" y="719.9999999999999" as="sourcePoint"/>
                        <mxPoint x="540" y="639.9999999999999" as="targetPoint"/>
                    </mxGeometry>
                </mxCell>
                <mxCell id="22" value="&amp;lt;&amp;lt;extend&amp;gt;&amp;gt;" style="html=1;verticalAlign=bottom;endArrow=open;dashed=1;endSize=8;entryX=0;entryY=0.5;entryDx=0;entryDy=0;exitX=1;exitY=0.5;exitDx=0;exitDy=0;startArrow=none;" edge="1" parent="1" source="4" target="7">
                    <mxGeometry relative="1" as="geometry">
                        <mxPoint x="430" y="729.9999999999999" as="sourcePoint"/>
                        <mxPoint x="550" y="649.9999999999999" as="targetPoint"/>
                    </mxGeometry>
                </mxCell>
                <mxCell id="17" value="Level-Maker" style="shape=umlFrame;whiteSpace=wrap;html=1;width=90;height=30;" parent="1" vertex="1">
                    <mxGeometry x="231" y="550" width="460" height="300" as="geometry"/>
                </mxCell>
            </root>
        </mxGraphModel>
    </diagram>
</mxfile>